<svg xmlns="http://www.w3.org/2000/svg" xmlns:xlink="http://www.w3.org/1999/xlink" width="200" zoomAndPan="magnify" viewBox="0 0 150 149.999998" height="200" preserveAspectRatio="xMidYMid meet" version="1.0"><path fill="#ffffff" d="M 30 0 C 34.210938 0.824219 37.144531 3.683594 39.890625 6.667969 C 47.453125 14.914062 53.75 24.035156 58.78125 34.03125 C 59.8125 36.117188 60.667969 38.277344 61.335938 40.507812 C 62.515625 44.316406 61.335938 47.546875 58.441406 50.175781 C 56.042969 52.328125 53.125 53.570312 50.273438 54.855469 C 48.511719 55.679688 46.773438 56.503906 45.007812 57.328125 C 44.347656 57.625 44.183594 57.988281 44.488281 58.691406 C 45.6875 61.621094 47.175781 64.398438 48.957031 67.023438 C 53.132812 73.65625 57.96875 79.773438 63.460938 85.367188 C 67.105469 88.941406 70.953125 92.28125 75 95.390625 C 78.550781 98.160156 82.417969 100.582031 86.191406 103.015625 C 87.855469 103.957031 89.566406 104.800781 91.328125 105.542969 C 91.433594 105.617188 91.554688 105.664062 91.683594 105.679688 C 91.816406 105.695312 91.941406 105.683594 92.066406 105.640625 C 92.191406 105.59375 92.296875 105.527344 92.386719 105.429688 C 92.476562 105.335938 92.542969 105.226562 92.578125 105.097656 C 93.820312 102.410156 95.074219 99.726562 96.339844 97.046875 C 97.382812 94.492188 98.917969 92.273438 100.945312 90.394531 C 103.894531 87.882812 107.207031 87.765625 110.710938 88.976562 C 114.496094 90.367188 118.105469 92.121094 121.542969 94.234375 C 129.339844 98.710938 136.566406 103.976562 143.21875 110.027344 C 145.367188 111.867188 147.15625 114.007812 148.589844 116.449219 C 149.136719 117.601562 149.609375 118.785156 150 120 L 150 121.828125 C 149.910156 122.199219 149.808594 122.570312 149.71875 122.941406 C 148.945312 126.015625 147.171875 128.523438 145.144531 130.863281 C 140.300781 136.332031 134.675781 140.832031 128.273438 144.355469 C 124.484375 146.609375 120.445312 148.257812 116.160156 149.300781 C 114.78125 149.605469 113.390625 149.785156 111.996094 150.023438 L 108.503906 150.023438 C 108.320312 149.960938 108.132812 149.910156 107.941406 149.875 C 104.703125 149.539062 101.558594 148.804688 98.503906 147.675781 C 92.59375 145.519531 86.957031 142.796875 81.59375 139.507812 C 68.046875 131.28125 55.609375 121.621094 44.28125 110.53125 C 36.242188 102.765625 28.847656 94.433594 22.097656 85.523438 C 15.949219 77.628906 10.613281 69.214844 6.089844 60.289062 C 3.675781 55.640625 1.878906 50.769531 0.699219 45.667969 C 0.402344 44.292969 0.230469 42.855469 0 41.496094 L 0 38.003906 C 0.0664062 37.820312 0.113281 37.632812 0.148438 37.441406 C 0.457031 34.195312 1.261719 31.074219 2.5625 28.078125 C 5.660156 20.648438 10.003906 14.035156 15.59375 8.242188 C 19.136719 4.53125 22.886719 1.078125 28.171875 0 Z M 109.945312 141.171875 C 113.023438 141.09375 115.964844 140.425781 118.773438 139.160156 C 125.015625 136.511719 130.59375 132.84375 135.503906 128.160156 C 137.585938 126.335938 139.335938 124.234375 140.753906 121.855469 C 140.9375 121.617188 141.019531 121.347656 141 121.046875 C 140.976562 120.746094 140.859375 120.492188 140.644531 120.28125 C 139.277344 118.820312 138.015625 117.265625 136.523438 115.910156 C 131.402344 111.289062 125.886719 107.195312 119.976562 103.632812 C 116.242188 101.15625 112.289062 99.105469 108.117188 97.476562 C 106.691406 96.957031 106.515625 96.957031 105.800781 98.300781 C 104.726562 100.292969 103.820312 102.421875 102.78125 104.398438 C 101.691406 106.730469 100.464844 108.988281 99.105469 111.171875 C 96.914062 114.394531 93.652344 115.375 89.894531 114.363281 C 87.375 113.640625 84.988281 112.617188 82.730469 111.289062 C 73.730469 106.117188 65.535156 99.886719 58.136719 92.605469 C 51.863281 86.34375 46.347656 79.476562 41.589844 72 C 39.320312 68.722656 37.480469 65.21875 36.066406 61.492188 C 35.242188 59.265625 34.839844 57.007812 35.761719 54.683594 C 36.179688 53.65625 36.761719 52.734375 37.515625 51.921875 C 38.265625 51.105469 39.136719 50.449219 40.128906 49.953125 C 42.734375 48.550781 45.46875 47.390625 48.117188 46.070312 C 49.617188 45.328125 51.007812 44.503906 52.425781 43.679688 C 52.636719 43.578125 52.777344 43.414062 52.847656 43.195312 C 52.917969 42.972656 52.898438 42.757812 52.789062 42.550781 C 52.292969 41.292969 51.875 39.988281 51.273438 38.777344 C 46.921875 30.046875 41.550781 22 35.152344 14.636719 C 33.652344 12.957031 32.054688 11.375 30.363281 9.890625 C 29.058594 8.703125 28.96875 8.753906 27.503906 9.691406 C 26.816406 10.109375 26.164062 10.578125 25.550781 11.09375 C 22.097656 14.046875 19.066406 17.386719 16.464844 21.113281 C 13.859375 24.839844 11.765625 28.832031 10.179688 33.089844 C 9.175781 35.539062 8.75 38.085938 8.902344 40.730469 C 9.226562 43.808594 9.964844 46.785156 11.117188 49.65625 C 14.207031 57.800781 18.660156 65.207031 23.539062 72.363281 C 29.523438 81.074219 36.140625 89.269531 43.394531 96.957031 C 53.359375 107.617188 64.320312 117.136719 76.269531 125.515625 C 83.464844 130.542969 90.929688 135.117188 99.105469 138.410156 C 102.570312 139.9375 106.183594 140.859375 109.953125 141.171875 Z M 109.945312 141.171875 " fill-opacity="1" fill-rule="nonzero"/></svg>